<svg xmlns="http://www.w3.org/2000/svg" viewBox="0 0 1000 990"><g><path d="M610,758.72c90.76,0,72,114.24,72.87,241.28H610Z" fill="#fdd2b2"></path><path d="M632.74,831.87,610,870l11.38,130h31.76C653.91,819.73,632.74,831.87,632.74,831.87Z" fill="#f3ab98"></path><path d="M233.25,500c0-147.32,119.43-266.75,266.75-266.75S766.75,352.68,766.75,500A266.22,266.22,0,0,1,668.1,707.12q-8.21,6.68-16.94,12.69C591,758,515,758,446.39,751.89c-6.66-1-13.3-2.26-19.89-3.71-26.33-5.8-51.82-14.75-75.37-27.8Q342.4,715,334.2,708.76a199.59,199.59,0,0,1-15.8-13.38q-7.14-6.63-13.79-13.78A265.86,265.86,0,0,1,233.25,500Z" fill="#fdd2b2"></path><path d="M269.61,634.48c.7,1.2,1.39,2.4,2.11,3.58.43.72.88,1.42,1.33,2.14.66,1.07,1.32,2.14,2,3.19.48.76,1,1.5,1.46,2.24.66,1,1.32,2,2,3,.51.76,1,1.52,1.56,2.28.66,1,1.32,1.92,2,2.88.54.77,1.1,1.53,1.65,2.3s1.34,1.85,2,2.77,1.15,1.53,1.73,2.29,1.37,1.8,2.07,2.7,1.19,1.51,1.79,2.26,1.41,1.76,2.12,2.63,1.23,1.49,1.85,2.23,1.44,1.72,2.17,2.57,1.27,1.47,1.91,2.2l2.22,2.5c.65.73,1.31,1.44,2,2.16.86.94,1.73,1.87,2.6,2.79l1.21,1.28c1.29,1.34,2.59,2.68,3.91,4l.26.27c1.29,1.28,2.6,2.55,3.91,3.81l1.58,1.5c.95.89,1.9,1.78,2.86,2.66l1.16,1.06c1,.94,2.09,1.86,3.14,2.78q4.9,4.27,10,8.19,8.19,6.24,16.93,11.62c23.55,13,49,22,75.37,27.8,6.59,1.45,13.23,2.7,19.89,3.71,42.1,3.75,87,5.18,129.28-3.08C508.45,729,185.59,612.74,388.8,257.48h0c-2.72,1.25-5.4,2.54-8.06,3.88l-.59.29c-1.22.61-2.44,1.24-3.65,1.88l-1,.53c-3.76,2-7.48,4.07-11.13,6.23l-.9.53c-1.16.69-2.31,1.39-3.46,2.1l-.87.54q-5.36,3.35-10.55,6.93l-1.08.75c-1.09.76-2.16,1.52-3.23,2.29l-.66.47q-3.27,2.39-6.46,4.84l-.62.48c-1,.78-2,1.58-3,2.39l-1.17.94c-1,.81-2,1.62-3,2.45l0,0c-2.11,1.75-4.19,3.55-6.24,5.37l-1.14,1-2.69,2.45L318,305q-4.28,4-8.37,8.17l-1.38,1.41c-.79.82-1.58,1.64-2.36,2.47-.46.49-.92,1-1.37,1.48q-2.06,2.2-4.06,4.46c-.45.51-.91,1-1.36,1.54-.71.81-1.41,1.63-2.11,2.45l-1.51,1.79c-.68.81-1.36,1.62-2,2.44-.54.66-1.08,1.33-1.61,2-1.07,1.33-2.12,2.66-3.16,4-.54.7-1.08,1.4-1.61,2.11s-1.2,1.59-1.79,2.4-1.07,1.45-1.59,2.18-1.13,1.55-1.68,2.33q-1.42,2-2.8,4.05c-.5.73-1,1.48-1.49,2.22s-1.1,1.66-1.64,2.5l-1.49,2.31-1.68,2.71c-.43.69-.86,1.38-1.28,2.07-.89,1.46-1.75,2.93-2.61,4.4l-1.22,2.16c-.54.95-1.08,1.91-1.61,2.87-.4.73-.8,1.46-1.19,2.19-.64,1.19-1.27,2.39-1.9,3.59l-1.2,2.34c-.64,1.28-1.28,2.55-1.91,3.84-.33.69-.67,1.39-1,2.09-.52,1.09-1,2.19-1.53,3.29-.31.66-.61,1.32-.91,2q-1.11,2.47-2.17,5c-.22.52-.43,1.05-.65,1.57-.53,1.27-1.05,2.54-1.56,3.82-.27.67-.53,1.34-.79,2-.5,1.26-1,2.53-1.45,3.8-.21.55-.42,1.1-.62,1.65q-.94,2.63-1.85,5.26l-.56,1.7q-.66,2-1.29,4l-.6,1.91c-.47,1.54-.93,3.08-1.37,4.63-.1.33-.2.66-.29,1q-.78,2.76-1.5,5.54c-.16.59-.3,1.19-.45,1.78-.35,1.39-.69,2.78-1,4.18l-.42,1.75c-.43,1.9-.85,3.8-1.24,5.71l-.15.77q-.51,2.55-1,5.1c-.11.61-.21,1.21-.32,1.82-.26,1.49-.51,3-.74,4.5-.08.51-.17,1-.24,1.52-.3,1.95-.57,3.91-.83,5.88l-.15,1.3c-.2,1.59-.38,3.19-.55,4.79-.06.6-.13,1.2-.19,1.81-.16,1.68-.31,3.37-.45,5.06,0,.35-.06.69-.08,1q-.22,3-.39,6.05c0,.53,0,1.07-.07,1.6q-.1,2.36-.18,4.71c0,.59,0,1.18,0,1.77,0,2.05-.08,4.11-.08,6.17,0,0,0,.07,0,.1,0,2.22,0,4.42.08,6.62,0,.76.06,1.52.08,2.28.05,1.47.1,2.94.17,4.41,0,.89.11,1.77.16,2.66.08,1.33.15,2.66.25,4,.07,1,.16,1.89.24,2.83.11,1.26.21,2.52.34,3.77.09,1,.21,1.94.31,2.91.14,1.21.27,2.43.42,3.64.12,1,.26,2,.39,2.95.16,1.18.32,2.37.5,3.55.15,1,.31,2,.47,3,.18,1.16.37,2.33.57,3.49.18,1,.36,2,.55,3,.21,1.15.43,2.3.65,3.44s.41,2,.62,3c.24,1.14.48,2.27.74,3.4s.44,2,.68,2.93c.26,1.13.54,2.25.82,3.36s.49,1.95.74,2.91c.3,1.12.6,2.23.91,3.34.26,1,.53,1.92.81,2.87.32,1.11.65,2.21,1,3.31s.58,1.89.88,2.84.7,2.19,1.06,3.28.62,1.87.94,2.8c.38,1.09.76,2.18,1.15,3.27.33.91.65,1.83,1,2.74l1.24,3.27c.35.89.69,1.79,1,2.68.44,1.09.89,2.19,1.34,3.28.36.86.71,1.73,1.08,2.59.47,1.12,1,2.22,1.45,3.33.37.82.73,1.65,1.1,2.47.52,1.16,1.07,2.3,1.6,3.44l1.08,2.3c.61,1.26,1.24,2.5,1.87,3.75.32.63.62,1.27.95,1.9q2.88,5.61,6,11.07C268.88,633.26,269.25,633.87,269.61,634.48Z" fill="#f3ab98"></path><path d="M233.25,500c0-147.32,119.43-266.75,266.75-266.75S766.75,352.68,766.75,500A266.22,266.22,0,0,1,668.1,707.12q-8.21,6.68-16.94,12.69C591,758,515,758,446.39,751.89c-6.66-1-13.3-2.26-19.89-3.71-26.33-5.8-51.82-14.75-75.37-27.8Q342.4,715,334.2,708.76a199.59,199.59,0,0,1-15.8-13.38q-7.14-6.63-13.79-13.78A265.86,265.86,0,0,1,233.25,500Z" fill="none" stroke="#592d3d" stroke-miterlimit="10" stroke-width="12px"></path><path d="M386.12,758.72c-90.77,0-72,114.24-72.87,241.28h72.87Z" fill="#fdd2b2"></path><path d="M367.23,831.87,390,870l-11.39,130H346.88C346.07,819.73,367.23,831.87,367.23,831.87Z" fill="#f3ab98"></path><path d="M619.47,1070H380.53a13.28,13.28,0,0,1-13.27-13.28V772a13.28,13.28,0,0,1,13.27-13.28H613.76c13.09,0,19,7.66,19,19.88v278.08A13.28,13.28,0,0,1,619.47,1070Z" fill="#fdd2b2"></path><path d="M629.05,766.62a19.33,19.33,0,0,1-2.51-4,17.25,17.25,0,0,0-8.28-3.51,28.88,28.88,0,0,0-4.5-.34H380.53A13.28,13.28,0,0,0,367.26,772c29,10.42,83.29,16.24,132.74,16.24C563.06,788.24,604.38,778.89,629.05,766.62Z" fill="#f3ab98"></path><path d="M610,758.72c90.76,0,72,114.24,72.87,241.28H632.74" fill="none" stroke="#592d3d" stroke-linecap="square" stroke-miterlimit="10" stroke-width="12px"></path><path d="M386.12,758.72c-90.77,0-72,114.24-72.87,241.28h50.07" fill="none" stroke="#592d3d" stroke-linecap="square" stroke-miterlimit="10" stroke-width="12px"></path><path d="M380.53,758.82l233.23-.1" fill="none" stroke="#592d3d" stroke-miterlimit="10" stroke-width="12px"></path><path d="M380.53,1070H497.15C388,1070,396.24,838.82,367.26,838.82v217.86A13.28,13.28,0,0,0,380.53,1070Z" fill="#f3ab98"></path><path d="M361.26,860.85c-.19-3.67-.11-7.34.05-11s.47-7.35.86-11c.2-1.84.4-3.67.65-5.51s.49-3.67.85-5.51a44.18,44.18,0,0,1,3.59-11,44.18,44.18,0,0,1,3.59,11c.36,1.84.62,3.67.85,5.51s.45,3.67.65,5.51c.38,3.67.68,7.34.85,11s.25,7.34.06,11Z" fill="#592d3d"></path><path d="M632.74,870v8c.26,34,.26,69,0,102.75,0,2.87,0,5.72,0,8.53v67.41A13.28,13.28,0,0,1,619.47,1070H380.53a13.28,13.28,0,0,1-13.27-13.28V998.52c0-2.51,0-5.07,0-7.65-.25-34.87-.25-69.87,0-105.3V860.85" fill="none" stroke="#592d3d" stroke-miterlimit="10" stroke-width="12px"></path><path d="M626.74,870c-.19-4.17-.1-8.35.06-12.53s.47-8.35.85-12.53c.2-2.09.41-4.18.65-6.27s.49-4.17.85-6.26a55.09,55.09,0,0,1,3.59-12.53,55.09,55.09,0,0,1,3.59,12.53c.36,2.09.62,4.18.85,6.26s.45,4.18.65,6.27c.38,4.18.69,8.35.85,12.53s.25,8.36.06,12.53Z" fill="#592d3d"></path><path d="M570.68,842.45C570.9,833,582.9,829,588.9,835a10.61,10.61,0,1,1-15.16,14.85A10.4,10.4,0,0,1,570.68,842.45Z" fill="#592d3d"></path><path d="M408.11,842.15C407.9,834,416.9,830,422.9,833c8,3,8,14,0,19-4,2-8,0-11.75-2.48A10.39,10.39,0,0,1,408.11,842.15Z" fill="#592d3d"></path><path d="M500,831.77a27.13,27.13,0,0,1,1.5,5.84,42.47,42.47,0,0,1,.49,5.84l.3,11.69c.09,3.89.21,7.79.25,11.69l.17,11.67c.23,15.57.22,31.16.28,46.74s.18,31.16,0,46.74c-.09,7.79-.3,15.58-.53,23.37-.1,3.89-.29,7.79-.67,11.68a92.5,92.5,0,0,1-1.77,11.69,92.5,92.5,0,0,1-1.77-11.69c-.38-3.89-.57-7.79-.67-11.68-.23-7.79-.44-15.58-.53-23.37-.2-15.58,0-31.16,0-46.74s0-31.15.18-46.73l.17-11.7.33-11.68.33-11.68a44.11,44.11,0,0,1,.5-5.84A27.13,27.13,0,0,1,500,831.77Z" fill="#f3ab98"></path><path d="M425.22,883a18.51,18.51,0,0,1,4.67-1.5,29.75,29.75,0,0,1,4.68-.5l9.35-.33,18.7-.41c12.46-.19,24.91-.24,37.38-.27s24.93-.16,37.39,0c6.23.09,12.46.3,18.7.53,3.11.11,6.23.3,9.34.67a61.34,61.34,0,0,1,9.35,1.78,59.17,59.17,0,0,1-9.35,1.77c-3.11.38-6.23.57-9.34.67-6.24.23-12.47.43-18.7.52-12.46.19-24.92,0-37.39,0s-24.93,0-37.4-.15c-6.23-.06-12.46-.26-18.68-.5l-9.35-.34a29.5,29.5,0,0,1-4.67-.5A18.45,18.45,0,0,1,425.22,883Z" fill="#f3ab98"></path><path d="M442.41,914.38a12.51,12.51,0,0,1,3.74-1.11,18.35,18.35,0,0,1,3.62-.15c2.39.1,4.78.16,7.17.21,4.78.11,9.56.15,14.34.17,9.63,0,19.09.08,28.76-.21s19.26-.43,28.88-.39c4.81,0,9.62.13,14.42.24a70.37,70.37,0,0,1,7.23.47,38.17,38.17,0,0,1,7.27,1.53,36.56,36.56,0,0,1-7.16,2,61.08,61.08,0,0,1-7.21.86c-4.82.35-9.64.65-14.45.82-9.64.36-19.27.32-28.88.45-4.81,0-9.61.22-14.48.1s-9.69-.13-14.52-.31-9.68-.58-14.5-1.08c-2.42-.27-4.82-.57-7.23-.9a16.82,16.82,0,0,1-3.57-.84A11.51,11.51,0,0,1,442.41,914.38Z" fill="#f3ab98"></path><path d="M438.93,949.87a13.07,13.07,0,0,1,3.82-1.5,19.13,19.13,0,0,1,3.82-.49l7.63-.32c5.09-.18,10.19-.33,15.28-.41C479.66,947,489.84,947,500,947s20.36-.17,30.54,0c5.09.09,10.18.3,15.27.53a72.73,72.73,0,0,1,7.63.66A41.2,41.2,0,0,1,561.1,950a41.25,41.25,0,0,1-7.63,1.77,70.34,70.34,0,0,1-7.64.67c-5.09.23-10.18.44-15.27.53-10.18.2-20.37.06-30.55,0s-20.36-.06-30.54-.25c-5.09-.1-10.19-.28-15.28-.49l-7.63-.37a19.33,19.33,0,0,1-3.82-.5A12.85,12.85,0,0,1,438.93,949.87Z" fill="#f3ab98"></path><polygon points="547.85 847.98 505.72 813.61 580.35 758.82 419.65 758.82 494.28 813.61 452.15 847.98 414.52 791.48 414.52 869.96 588.78 869.96 588.78 786.52 547.85 847.98" fill="#f3ab98"></polygon><path d="M616.66,758.16l-42.73.1a119.49,119.49,0,0,1-1.43,13.48,63.7,63.7,0,0,1-1.74,6.34c-2.34,6.49-17.26,12-21.49,16.73a48.22,48.22,0,0,1-4.5,4.43c-25.17,18.2-65.17,19.2-89.48-.58a51.36,51.36,0,0,1-7.11-7.61c-4.23-5.56-16.4-11.59-18.1-18.94a60,60,0,0,1-1.08-6.59,63.55,63.55,0,0,1-.36-6.8s-45.21-.56-45.21-.56a13.28,13.28,0,0,0-13.28,13.27v284.69a13.28,13.28,0,0,0,13.28,13.27H622.36a13.27,13.27,0,0,0,13.27-13.27V778C635.63,765.82,629.75,758.16,616.66,758.16Z" fill="#ffffff"></path><path d="M612.84,758.16c63.54,0,88.52,43.39,78.9,272-18.74,6.7-55.91,4.59-55.91,4.59Z" fill="#ffffff"></path><polygon points="451.06 855.4 499.51 831.31 548.09 855.4 511.03 812.38 467.14 813.21 451.06 855.4" fill="#E2E2E2"></polygon><path d="M635.63,831.31s-22.79,84.54-19.31,234l33.21-31,3.58-137.58C647.49,824.5,635.63,831.31,635.63,831.31Z" fill="#E2E2E2"></path><path d="M389,758.16c-61.78,0-88.88,56.45-80.75,245.48,22.42,9.91,56.19,5.58,56.19,5.58Z" fill="#ffffff"></path><path d="M306.94,957.49q.26,20.46,1.21,43.48c15.27.73,43.69.88,57.11,0l4.18-42.81C358.67,956.9,323.66,956.49,306.94,957.49Z" fill="#E2E2E2"></path><path d="M370.12,831.31l-.5,177.69-13.35.9C353.3,860.85,370.12,831.31,370.12,831.31Z" fill="#E2E2E2"></path><path d="M612.84,758.16c67.42,0,78.45,56.28,78.9,133.78v138.22s-50,5.53-55.91,4.59l-.1-142.11" fill="none" stroke="#592d3d" stroke-linecap="square" stroke-miterlimit="10" stroke-width="12px"></path><path d="M389,758.16c-25.73,0-43.52,8.12-55.71,22.44-19.45,22.87-24.63,61.54-25,108.27v123.77c12.06,3.32,61.36-3.64,61.36-3.64l.49-118.6" fill="none" stroke="#592d3d" stroke-linecap="square" stroke-miterlimit="10" stroke-width="12px"></path><path d="M372.6,1011.24c-1.83,2.61-73.77,1.92-74.67,0s-2.19-37.5,0-41c1.8-2.88,72.11-2.27,74.67,0S374.43,1008.63,372.6,1011.24Z" fill="#ffffff" stroke="#592d3d" stroke-linecap="square" stroke-miterlimit="10" stroke-width="12px"></path><path d="M383.43,1069.39H500c-109.19,0-100.91-231.14-129.89-231.14v217.87A13.28,13.28,0,0,0,383.43,1069.39Z" fill="#E2E2E2"></path><path d="M364.15,860.29c-.19-3.67-.11-7.35.06-11s.47-7.34.85-11c.2-1.83.41-3.67.65-5.51s.49-3.67.85-5.5a44.05,44.05,0,0,1,3.59-11,44.05,44.05,0,0,1,3.59,11c.36,1.83.62,3.67.85,5.5s.45,3.68.65,5.51q.58,5.52.86,11c.16,3.67.24,7.35,0,11Z" fill="#592d3d"></path><path d="M635.63,869.4v8c.26,34,.26,69,0,102.76,0,2.87,0,5.72,0,8.53v67.41a13.27,13.27,0,0,1-13.27,13.27H383.43a13.28,13.28,0,0,1-13.28-13.27V990.3c-.26-34.86-.26-69.86,0-105.3V860.29" fill="none" stroke="#592d3d" stroke-miterlimit="10" stroke-width="12px"></path><path d="M697.42,970.24c2.22,2.26,1.59,38.39,0,41s-64,1.92-64.77,0-1.9-37.5,0-41c.27-.5,2.28-.89,5.45-1.18" fill="#ffffff" stroke="#592d3d" stroke-linecap="square" stroke-miterlimit="10" stroke-width="12px"></path><path d="M678.92,968.3c3.8.3,15-1.18,15.42-.76" fill="#ffffff"></path><path d="M678.92,968.3a23.67,23.67,0,0,1,1.88-2.16,12.13,12.13,0,0,1,1.78-1.47,12.74,12.74,0,0,1,1.81-1c.61-.29,1.22-.54,1.83-.79a24.1,24.1,0,0,1,3.79-1.18,15.85,15.85,0,0,1,2-.31c.36,0,.73,0,1.17,0,.25,0,.46,0,.82,0,.12,0,.44,0,.71.07l.35,0,.49.11.25.06.2.06.57.21a6.45,6.45,0,0,1,2,1.37l4.2,4.29-8.65,8.48-4.12-4.37a5.73,5.73,0,0,0,1.91,1.32c.18.08.36.14.54.2l.17,0,.19.05a2.34,2.34,0,0,0,.38.09l.19,0h0c.1,0,.26,0,.22,0s-.07,0-.15,0l-.75,0c-.57,0-1.19,0-1.82,0a26.27,26.27,0,0,1-3.92-.53c-.67-.15-1.34-.3-2-.49a12.56,12.56,0,0,1-2-.72,10,10,0,0,1-2.08-1.32A8.19,8.19,0,0,1,678.92,968.3Z" fill="#592d3d"></path><polygon points="592.51 763.64 517.84 818.45 559.98 852.83 619.4 763.59 592.51 763.64" fill="#E2E2E2"></polygon><path d="M629.63,869.4c-.19-4.18-.1-8.36.06-12.53s.47-8.36.86-12.53c.2-2.09.4-4.18.64-6.27s.49-4.18.86-6.27a54.83,54.83,0,0,1,3.58-12.53,54.37,54.37,0,0,1,3.59,12.53c.36,2.09.63,4.18.85,6.27s.45,4.18.65,6.27c.39,4.17.69,8.35.85,12.53s.26,8.35.06,12.53Z" fill="#592d3d"></path><path d="M383.43,758.26l233.23-.1" fill="none" stroke="#592d3d" stroke-miterlimit="10" stroke-width="12px"></path><polygon points="529.39 835.55 507.04 813.21 484.7 835.55 495.68 846.53 485.96 953.16 506.7 969.33 528.12 953.16 518.41 846.53 529.39 835.55" fill="#E2E2E2"></polygon><line x1="500.04" y1="813.21" x2="500.04" y2="1069.39" fill="none" stroke="#592d3d" stroke-linecap="square" stroke-miterlimit="10" stroke-width="6px"></line><polygon points="500.04 813.21 522.39 828.55 500.04 850.9 477.7 828.55 500.04 813.21" fill="#FFFFFF"></polygon><path d="M419.62,758.8s43.27,39.34,74.66,54.81C479,838.82,452.15,848,452.15,848l-59.43-89.23Z" fill="#ffffff" stroke="#592d3d" stroke-miterlimit="10" stroke-width="12px"></path><path d="M580.38,758.8S541,800,505.72,813.61c10,20.28,42.13,34.37,42.13,34.37l59.43-89.23Z" fill="#ffffff" stroke="#592d3d" stroke-miterlimit="10" stroke-width="12px"></path><g transform="translate(0 30)"><path d="M566.88,917.83c0-8.86-11.1-17.26-28.11-22.47,3.93-17.34,2.18-31.13-5.51-35.55a9.56,9.56,0,0,0-6.08-1.56c-8,.13-17.31,5.35-27.23,14.62C490,863.65,479,858.2,472.71,858.36c-3.16.09-4.37.52-6.16,1.56-7.67,4.41-9.38,18.18-5.43,35.47-17,5.23-28,13.61-28,22.44s11.1,17.26,28.11,22.47c-3.93,17.34-2.18,31.13,5.51,35.55a11.93,11.93,0,0,0,6.13,1.53c7.5,0,17.31-5.35,27.24-14.62,9.92,9.22,19.74,14.51,27.24,14.51a12.11,12.11,0,0,0,6.16-1.53c7.66-4.42,9.38-18.19,5.42-35.47C555.84,935.06,566.88,926.66,566.88,917.83Zm-39.72-53.49v0a6.32,6.32,0,0,1,3.1.71c3.71,2.13,5.32,10.23,4.07,20.64-.3,2.56-.79,5.26-1.39,8a133,133,0,0,0-17.32-3,132.78,132.78,0,0,0-11.34-13.63C513.16,868.87,521.49,864.35,527.16,864.34Zm-51.32,67.45q1.92,3.27,3.93,6.38c-3.87-.57-7.61-1.28-11.18-2.15,1-3.52,2.26-7.15,3.68-10.77C473.39,927.43,474.56,929.61,475.84,931.79Zm-7.33-32.15c3.57-.84,7.33-1.58,11.23-2.15-1.33,2.1-2.67,4.25-3.92,6.46s-2.43,4.36-3.55,6.54A114.8,114.8,0,0,1,468.51,899.64Zm6.95,18.27c1.69-3.65,3.6-7.31,5.65-10.88s4.3-7.17,6.57-10.41c4.06-.36,8.18-.55,12.32-.55s8.23.19,12.27.52c2.26,3.24,4.47,6.71,6.6,10.36s4,7.2,5.67,10.85c-1.72,3.66-3.6,7.31-5.65,10.88s-4.3,7.17-6.57,10.42c-4.06.35-8.18.54-12.32.54s-8.23-.19-12.27-.52c-2.26-3.24-4.47-6.7-6.6-10.36S477.18,921.56,475.46,917.91Zm48.7,13.8c1.25-2.18,2.42-4.39,3.54-6.57A114.8,114.8,0,0,1,531.46,936c-3.57.87-7.33,1.61-11.23,2.18C521.57,936.07,522.9,933.92,524.16,931.71Zm0-27.84c-1.25-2.18-2.59-4.31-3.93-6.38q5.82.85,11.18,2.15c-1,3.52-2.26,7.15-3.68,10.77C526.58,908.23,525.41,906.05,524.13,903.87ZM507.5,890.15c-2.46-.1-5-.19-7.5-.19s-5.1.06-7.58.19a105.71,105.71,0,0,1,7.5-8.72A114.37,114.37,0,0,1,507.5,890.15Zm-37.93-25a6.08,6.08,0,0,1,3.14-.71v0c5.64,0,14,4.5,22.9,12.71a129.42,129.42,0,0,0-11.26,13.6,129.07,129.07,0,0,0-17.34,3c-.63-2.72-1.09-5.37-1.42-7.9C464.31,875.43,465.89,867.33,469.57,865.18Zm-6.87,69.23c-2.7-.85-5.26-1.78-7.63-2.78-9.66-4.12-15.9-9.52-15.9-13.8s6.24-9.71,15.9-13.8c2.34-1,4.9-1.91,7.55-2.75a130.83,130.83,0,0,0,6.13,16.6A130.68,130.68,0,0,0,462.7,934.41Zm10.12,36.91a6.43,6.43,0,0,1-3.08-.73c-3.71-2.13-5.32-10.23-4.07-20.64.3-2.57.79-5.26,1.39-8a131.33,131.33,0,0,0,17.32,3,131.87,131.87,0,0,0,11.34,13.64C486.83,966.8,478.49,971.32,472.82,971.32Zm27.23-17.09a114.59,114.59,0,0,1-7.58-8.73c2.46.11,5,.19,7.5.19s5.1-.05,7.58-.19A105.91,105.91,0,0,1,500.05,954.23Zm30.38,16.25a6.08,6.08,0,0,1-3.14.71c-5.64,0-14-4.5-22.9-12.71a129.42,129.42,0,0,0,11.26-13.6,129.07,129.07,0,0,0,17.34-3,75.63,75.63,0,0,1,1.42,7.93C535.69,960.23,534.11,968.32,530.43,970.48Zm14.48-38.85c-2.35,1-4.91,1.9-7.56,2.75a131.52,131.52,0,0,0-6.13-16.61,129,129,0,0,0,6-16.52c2.7.85,5.26,1.77,7.66,2.78,9.66,4.12,15.9,9.52,15.9,13.8S554.56,927.54,544.91,931.63Z" stroke="#ffffff" stroke-width="16px"></path><circle cx="499.97" cy="917.83" r="12.46" stroke="#ffffff" stroke-width="24px"></circle><path d="M566.88,917.83c0-8.86-11.1-17.26-28.11-22.47,3.93-17.34,2.18-31.13-5.51-35.55a9.56,9.56,0,0,0-6.08-1.56c-8,.13-17.31,5.35-27.23,14.62C490,863.65,479,858.2,472.71,858.36c-3.16.09-4.37.52-6.16,1.56-7.67,4.41-9.38,18.18-5.43,35.47-17,5.23-28,13.61-28,22.44s11.1,17.26,28.11,22.47c-3.93,17.34-2.18,31.13,5.51,35.55a11.93,11.93,0,0,0,6.13,1.53c7.5,0,17.31-5.35,27.24-14.62,9.92,9.22,19.74,14.51,27.24,14.51a12.11,12.11,0,0,0,6.16-1.53c7.66-4.42,9.38-18.19,5.42-35.47C555.84,935.06,566.88,926.66,566.88,917.83Zm-39.72-53.49v0a6.32,6.32,0,0,1,3.1.71c3.71,2.13,5.32,10.23,4.07,20.64-.3,2.56-.79,5.26-1.39,8a133,133,0,0,0-17.32-3,132.78,132.78,0,0,0-11.34-13.63C513.16,868.87,521.49,864.35,527.16,864.34Zm-51.32,67.45q1.92,3.27,3.93,6.38c-3.87-.57-7.61-1.28-11.18-2.15,1-3.52,2.26-7.15,3.68-10.77C473.39,927.43,474.56,929.61,475.84,931.79Zm-7.33-32.15c3.57-.84,7.33-1.58,11.23-2.15-1.33,2.1-2.67,4.25-3.92,6.46s-2.43,4.36-3.55,6.54A114.8,114.8,0,0,1,468.51,899.64Zm6.95,18.27c1.69-3.65,3.6-7.31,5.65-10.88s4.3-7.17,6.57-10.41c4.06-.36,8.18-.55,12.32-.55s8.23.19,12.27.52c2.26,3.24,4.47,6.71,6.6,10.36s4,7.2,5.67,10.85c-1.72,3.66-3.6,7.31-5.65,10.88s-4.3,7.17-6.57,10.42c-4.06.35-8.18.54-12.32.54s-8.23-.19-12.27-.52c-2.26-3.24-4.47-6.7-6.6-10.36S477.18,921.56,475.46,917.91Zm48.7,13.8c1.25-2.18,2.42-4.39,3.54-6.57A114.8,114.8,0,0,1,531.46,936c-3.57.87-7.33,1.61-11.23,2.18C521.57,936.07,522.9,933.92,524.16,931.71Zm0-27.84c-1.25-2.18-2.59-4.31-3.93-6.38q5.82.85,11.18,2.15c-1,3.52-2.26,7.15-3.68,10.77C526.58,908.23,525.41,906.05,524.13,903.87ZM507.5,890.15c-2.46-.1-5-.19-7.5-.19s-5.1.06-7.58.19a105.71,105.71,0,0,1,7.5-8.72A114.37,114.37,0,0,1,507.5,890.15Zm-37.93-25a6.08,6.08,0,0,1,3.14-.71v0c5.64,0,14,4.5,22.9,12.71a129.42,129.42,0,0,0-11.26,13.6,129.07,129.07,0,0,0-17.34,3c-.63-2.72-1.09-5.37-1.42-7.9C464.31,875.43,465.89,867.33,469.57,865.18Zm-6.87,69.23c-2.7-.85-5.26-1.78-7.63-2.78-9.66-4.12-15.9-9.52-15.9-13.8s6.24-9.71,15.9-13.8c2.34-1,4.9-1.91,7.55-2.75a130.83,130.83,0,0,0,6.13,16.6A130.68,130.68,0,0,0,462.7,934.41Zm10.12,36.91a6.43,6.43,0,0,1-3.08-.73c-3.71-2.13-5.32-10.23-4.07-20.64.3-2.57.79-5.26,1.39-8a131.33,131.33,0,0,0,17.32,3,131.87,131.87,0,0,0,11.34,13.64C486.83,966.8,478.49,971.32,472.82,971.32Zm27.23-17.09a114.59,114.59,0,0,1-7.58-8.73c2.46.11,5,.19,7.5.19s5.1-.05,7.58-.19A105.91,105.91,0,0,1,500.05,954.23Zm30.38,16.25a6.08,6.08,0,0,1-3.14.71c-5.64,0-14-4.5-22.9-12.71a129.42,129.42,0,0,0,11.26-13.6,129.07,129.07,0,0,0,17.34-3,75.63,75.63,0,0,1,1.42,7.93C535.69,960.23,534.11,968.32,530.43,970.48Zm14.48-38.85c-2.35,1-4.91,1.9-7.56,2.75a131.52,131.52,0,0,0-6.13-16.61,129,129,0,0,0,6-16.52c2.7.85,5.26,1.77,7.66,2.78,9.66,4.12,15.9,9.52,15.9,13.8S554.56,927.54,544.91,931.63Z" fill="#61dafb"></path><circle cx="499.97" cy="917.83" r="12.46" fill="#61dafb"></circle></g><polygon points="478.96 946.16 499.7 962.33 521.12 946.16 511.12 836.38 488.96 836.38 478.96 946.16" fill="#FFFFFF"></polygon><polyline points="477.7 828.55 488.68 839.53 478.96 946.16 499.7 962.33 521.12 946.16 511.41 839.53 522.39 828.55" fill="none" stroke="#592d3d" stroke-miterlimit="10" stroke-width="8px"></polyline><path d="M638.1,969.06c7.51-.71,21.51-.89,34-.67" fill="#ffffff"></path><path d="M637.54,963.08a50.92,50.92,0,0,1,8.84-.47c2.9.07,5.78.3,8.66.65,1.43.18,2.87.37,4.3.61a43.36,43.36,0,0,1,4.29.85,27.53,27.53,0,0,1,8.5,3.67,30.13,30.13,0,0,1-8.52,3.5c-1.41.36-2.82.63-4.23.86s-2.81.47-4.21.69c-2.8.42-5.59.78-8.35,1s-5.52.5-8.16.54l-6,.1-1-11.13Z" fill="#592d3d"></path><circle cx="515.77" cy="982.93" r="4.8" fill="#592d3d"></circle><path d="M490.89,836.19c-.05-.06,0,0,0,0l.07.05a.88.88,0,0,1,.17.12l.38.29c.25.21.52.42.78.65.53.45,1.09.93,1.7,1.39s1.27.9,2,1.42a27.37,27.37,0,0,1,2.71,2.33,5.61,5.61,0,0,1-3.13,2.43,9.41,9.41,0,0,1-3.7.27,11,11,0,0,1-3.63-1,9.72,9.72,0,0,1-1.65-1,8.85,8.85,0,0,1-.77-.63c-.12-.11-.25-.23-.37-.36l-.2-.21-.25-.29Z" fill="#592d3d"></path><path d="M664.05,702.32c28.31-23,54.41-54.72,70.68-86.1-.06-.1-3.49,3.38-3.55,3.28S710.11,638.28,649.66,638c-76.3-.31-60.54-21.68-152.51-21.68-81.42,0-68.49,11.89-145.15,16.15-62.09,3.45-83.62-13-83.62-13l-.2.33a261.18,261.18,0,0,0,40.56,57.53c4.32,4.65,8.86,9.18,13.48,13.48a193.3,193.3,0,0,0,15.35,13c5.18,3.95,10.67,7.72,16.33,11.21,21.71,12,46.48,21.14,73.63,27.13,6.49,1.43,13,2.64,19.31,3.6,65.81,5.85,141.08,6.7,200.74-31.12C653.21,710.78,658.75,706.63,664.05,702.32Z" opacity="0.15"></path><circle cx="311.51" cy="659.14" r="4.18" fill="#592d3d"></circle><circle cx="338.51" cy="663.32" r="2.96" fill="#592d3d"></circle><circle cx="401.05" cy="707.98" r="2.96" fill="#592d3d"></circle><circle cx="506.83" cy="711.31" r="2.96" fill="#592d3d"></circle><circle cx="517.63" cy="704.5" r="2.96" fill="#592d3d"></circle><circle cx="578.33" cy="701.54" r="2.96" fill="#592d3d"></circle><circle cx="581.29" cy="683.15" r="2.96" fill="#592d3d"></circle><circle cx="391.69" cy="690.72" r="5.37" fill="#592d3d"></circle><circle cx="600.44" cy="707.45" r="2.09" fill="#592d3d"></circle><circle cx="642.96" cy="696.08" r="4.18" fill="#592d3d"></circle><circle cx="462.56" cy="724.04" r="4.18" fill="#592d3d"></circle><circle cx="642.96" cy="663.22" r="2.96" fill="#592d3d"></circle><circle cx="654.05" cy="673.06" r="2.96" fill="#592d3d"></circle><path d="M296.49,572.61V559.68a49.6,49.6,0,0,1,1.94-25.32,46,46,0,0,1,3.51-7.65C305.29,518,314.29,511,323.29,508c14-4,31-2,42,9,14,15,12,37,12.45,55.62" fill="none" stroke="#592d3d" stroke-linecap="round" stroke-miterlimit="10" stroke-width="12px"></path><path d="M623.31,573c-2.34-26.62,1.66-63.62,36.13-67.17a45,45,0,0,1,8.12,0A43.68,43.68,0,0,1,690,514.41c18,15,14,39,13.95,58.63" fill="none" stroke="#592d3d" stroke-linecap="round" stroke-miterlimit="10" stroke-width="12px"></path><path d="M443.14,621.86c0-18.9,113.72-16.06,113.72,0a56.86,56.86,0,0,1-113.72,0Z" fill="#592d3d"></path><path d="M495,643c-16.95-1-31.73,6.75-36.65,18.22a56.86,56.86,0,0,0,65.14,12.53A55.39,55.39,0,0,0,530,670.2C529.08,656.09,514.06,644.18,495,643Z" fill="#f28195"></path><path d="M443.14,621.86c0-18.9,113.72-16.06,113.72,0a56.86,56.86,0,0,1-113.72,0Z" fill="none" stroke="#592d3d" stroke-miterlimit="10" stroke-width="6px"></path><path d="M478.12,632.46c.45-.11.63-.16.92-.21l.75-.14c.49-.09,1-.14,1.46-.18a21.54,21.54,0,0,1,2.89-.1,25,25,0,0,1,5.79.81,21.4,21.4,0,0,1,10.35,6.1,20.18,20.18,0,0,1,5.08,10.16A17.27,17.27,0,0,1,504,659.25c-2.07-2.93-3.66-5.56-5.32-7.76a28.41,28.41,0,0,0-2.45-3,14.06,14.06,0,0,0-2.7-2.16,15.48,15.48,0,0,0-6.11-2.09A29.5,29.5,0,0,0,484,644c-.59,0-1.18,0-1.76.05l-.85.06-.39,0c-.1,0-.3,0-.23,0Z" fill="#592d3d"></path><path d="M500,233.25c-135.7,0-247.73,101.33-264.56,232.45a307.11,307.11,0,0,0,70.16-98.91A919.45,919.45,0,0,0,500,387.94a899.57,899.57,0,0,0,194.4-21.15,307.11,307.11,0,0,0,70.16,98.91C747.73,334.58,635.7,233.25,500,233.25Z" fill="#A56941"></path><path d="M305.6,366.79q15.94,3.45,32.07,6.35c10.61-35.4,27.23-73.88,51.13-115.66h0c-1.33.62-2.66,1.24-4,1.87l-.17.08c-1.31.63-2.62,1.27-3.92,1.93l-.59.29c-1.22.61-2.44,1.24-3.65,1.88l-1,.53c-3.76,2-7.48,4.07-11.13,6.23l-.8.47-.14.09q-1.73,1-3.42,2.07l-.87.54q-5.36,3.35-10.55,6.93l-1.08.75c-1,.71-2,1.42-3,2.14l-.71.52-.15.1q-3.27,2.39-6.46,4.84l-.62.48c-1,.78-2,1.58-3,2.39l-1.17.94-2.41,2-.78.65c-2.05,1.71-4.06,3.45-6.06,5.22l-1.14,1-2.69,2.45L318,305q-4.28,4-8.37,8.17l-1,1c-.22.22-.43.44-.64.67-.7.72-1.39,1.44-2.08,2.17-.46.49-.92,1-1.37,1.48q-2.06,2.2-4.06,4.46l-.48.55c-.31.35-.63.7-.94,1.06L297,327c-.11.14-.22.27-.34.4l-1.2,1.43c-.61.72-1.21,1.45-1.81,2.18-.39.47-.78,1-1.17,1.44l-.66.82q-1.59,2-3.13,4l-.07.09c-.53.68-1.05,1.36-1.57,2.05-.4.52-.79,1.05-1.17,1.57l-1,1.33-1.22,1.68-1,1.35-1.41,2c-.57.81-1.13,1.62-1.69,2.44s-1.11,1.64-1.65,2.46l-.25.36-1.52,2.31-1.74,2.72c-.52.83-1,1.66-1.55,2.49h0c-.57.92-1.14,1.84-1.7,2.77s-1,1.68-1.48,2.52-.92,1.56-1.36,2.34l-.57,1-1.13,2c-.42.77-.85,1.53-1.26,2.3-.14.25-.28.5-.41.75-.42.78-.84,1.57-1.25,2.36s-.68,1.29-1,1.94l-.84,1.63-.93,1.88c-.39.78-.78,1.55-1.16,2.34l-.82,1.71-.3.65c-.44.92-.87,1.85-1.3,2.78l-.72,1.59c-.41.91-.81,1.83-1.21,2.75l-1,2.34c-.45,1.07-.88,2.14-1.32,3.21-.32.77-.63,1.53-.94,2.3-.11.26-.21.53-.31.8-.35.88-.69,1.77-1,2.66s-.61,1.57-.9,2.36l-.16.43c-.38,1-.74,2-1.1,3.06s-.64,1.79-1,2.69c-.37,1.08-.73,2.15-1.08,3.23-.3.91-.6,1.82-.89,2.73-.35,1.09-.68,2.17-1,3.26-.28.92-.55,1.84-.82,2.77-.32,1.09-.64,2.19-.94,3.29-.26.92-.51,1.85-.75,2.78-.3,1.11-.59,2.22-.87,3.34-.24.92-.46,1.86-.68,2.79-.27,1.12-.54,2.25-.8,3.37-.21.93-.41,1.87-.61,2.8-.24,1.14-.49,2.29-.73,3.44-.18.91-.35,1.82-.52,2.74s-.39,2-.57,3l-.18,1-.33,2c-.18,1.09-.37,2.19-.54,3.29,0,.21-.07.42-.1.63q-.45,3-.84,6A307.11,307.11,0,0,0,305.6,366.79Z" fill="#8D5638"></path><path d="M500,233.25c-135.7,0-247.73,101.33-264.56,232.45a307.11,307.11,0,0,0,70.16-98.91A919.45,919.45,0,0,0,500,387.94a899.57,899.57,0,0,0,194.4-21.15,307.11,307.11,0,0,0,70.16,98.91C747.73,334.58,635.7,233.25,500,233.25Z" fill="none" stroke="#592d3d" stroke-miterlimit="10" stroke-width="12px"></path><path d="M506.21,250.1c-12.57,1.68-24.94,3.38-37.16,5.76s-24.29,5.18-36.18,8.64-23.62,7.48-35.18,12.07-22.95,9.73-34.46,15.05a170,170,0,0,1,31.87-20.78,204.11,204.11,0,0,1,73.07-21.19A172.76,172.76,0,0,1,506.21,250.1Z" fill="#ffffff"></path><path d="M603.1,452.29a320.74,320.74,0,0,1,33.51-6.66L634,446a150.31,150.31,0,0,1,39.75-.48l-2.66-.36c3.28.45,6.54,1,9.82,1.41l-2.66-.35a222.52,222.52,0,0,1,29.48,6.1c5,1.4,11.11-1.72,12.3-7a10.19,10.19,0,0,0-7-12.3,239.34,239.34,0,0,0-34.58-6.78l2.65.36a142.93,142.93,0,0,0-33.43-1.95,236.67,236.67,0,0,0-33.1,4.54c-5.61,1.14-11.19,2.44-16.76,3.81-5.08,1.25-8.61,7.26-7,12.3a10.21,10.21,0,0,0,12.3,7Z" fill="#592d3d"></path><path d="M261.26,502.22l14.13-1.48,33.67-3.52L350,492.93l35.18-3.69c5.72-.59,11.44-1.17,17.16-1.79l.24,0c2.73-.28,5.07-.92,7.07-2.93a10,10,0,0,0,0-14.14c-1.83-1.69-4.48-3.2-7.07-2.93l-14.13,1.48-33.67,3.53-41,4.29-35.18,3.68c-5.72.6-11.44,1.18-17.16,1.8l-.24,0c-2.73.29-5.07.93-7.07,2.93a10,10,0,0,0,0,14.15c1.83,1.68,4.48,3.2,7.07,2.92Z" fill="#592d3d"></path><circle cx="338.9" cy="548.55" r="93.31" fill="white" opacity="0.2"></circle><path d="M744.47,606.82a103.27,103.27,0,0,1-188.33-51.49c-37-14.6-74.43-14.47-114.19.39a103.43,103.43,0,0,1-103,96.13c-32.48,0-76-36.5-71-28.39,14,20.69,47,36.45,72.54,36.45,54.55,0,97.87-39.29,101.56-92.92,39.76-14.85,77.23-15,114.19-.39,3.5,53.82,48.39,93.53,103.07,93.53C704,660.13,729.4,626,744.47,606.82Z" opacity="0.15"></path><path d="M320,648.75,443.07,525.67a93.05,93.05,0,0,0-10-17.27L302.72,638.76A93.1,93.1,0,0,0,320,648.75Z" fill="white" opacity="0.4"></path><circle cx="338.9" cy="548.55" r="93.31" fill="none" stroke="#592d3d" stroke-miterlimit="10" stroke-width="20px"></circle><circle cx="659.21" cy="548.55" r="93.31" fill="none" stroke="#592d3d" stroke-miterlimit="10" stroke-width="20px"></circle><path d="M432.77,548.55c45.2-18.31,89.61-19,133.14,0" fill="none" stroke="#592d3d" stroke-miterlimit="10" stroke-width="20px"></path><path d="M314.7,492.5c2.06,6.5-5.94,11.5-11.94,12.5-6,0-10-4-12-9-1-5,0-10,4-13,5-2,12-4,16.45,1.13A11.66,11.66,0,0,1,314.7,492.5Z" fill="white"></path><path d="M325.37,488.67c-.61,4.33-6.61,4.33-7.61.33,0-3,1-4,3.85-4.1A3.76,3.76,0,0,1,325.37,488.67Z" fill="white"></path><circle cx="659.21" cy="548.55" r="93.31" fill="white" opacity="0.2"></circle><path d="M645.19,640.81,751.47,534.52a94.74,94.74,0,0,0-2.41-11.22L634,638.4A94.31,94.31,0,0,0,645.19,640.81Z" fill="white" opacity="0.4"></path><circle cx="659.21" cy="548.55" r="93.31" fill="none" stroke="#592d3d" stroke-miterlimit="10" stroke-width="20px"></circle><path d="M635,492.5c2.06,6.5-5.94,11.5-11.94,12.5-6,0-10-4-12-9-1-5,0-10,4-13,5-2,12-4,16.45,1.13A11.7,11.7,0,0,1,635,492.5Z" fill="white"></path><path d="M645.69,488.67c-.61,4.33-6.61,4.33-7.61.33,0-3,1-4,3.84-4.1A3.77,3.77,0,0,1,645.69,488.67Z" fill="white"></path></g></svg>