<svg xmlns="http://www.w3.org/2000/svg"  viewBox="0 0 100 100" width="200px" height="200px" fill-rule="evenodd" clip-rule="evenodd"><path fill="#c7ede6" d="M87.215,56.71C88.35,54.555,89,52.105,89,49.5c0-6.621-4.159-12.257-10.001-14.478 C78.999,35.015,79,35.008,79,35c0-11.598-9.402-21-21-21c-9.784,0-17.981,6.701-20.313,15.757C36.211,29.272,34.638,29,33,29 c-7.692,0-14.023,5.793-14.89,13.252C12.906,43.353,9,47.969,9,53.5C9,59.851,14.149,65,20.5,65c0.177,0,0.352-0.012,0.526-0.022 C21.022,65.153,21,65.324,21,65.5C21,76.822,30.178,86,41.5,86c6.437,0,12.175-2.972,15.934-7.614C59.612,80.611,62.64,82,66,82 c4.65,0,8.674-2.65,10.666-6.518C77.718,75.817,78.837,76,80,76c6.075,0,11-4.925,11-11C91,61.689,89.53,58.727,87.215,56.71z"/><path fill="#fdfcef" d="M22.125,79.5c0,0-3.64,0-6.125,0s-4.5-2.015-4.5-4.5c0-2.333,1.782-4.229,4.055-4.455 C15.533,70.364,15.5,70.187,15.5,70c0-2.485,2.015-4.5,4.5-4.5c1.438,0,2.703,0.686,3.527,1.736 C23.667,64.6,25.829,62.5,28.5,62.5c2.761,0,5,2.239,5,5c0,0.446-0.077,0.87-0.187,1.282c0.642-0.777,1.6-1.282,2.687-1.282 c1.781,0,3.234,1.335,3.455,3.055C39.636,70.533,39.813,70.5,40,70.5c2.485,0,4.5,2.015,4.5,4.5s-2.015,4.5-4.5,4.5s-9.5,0-9.5,0 h-5.375V80h-3V79.5z"/><path fill="#472b29" d="M28.5,62c3.033,0,5.5,2.467,5.5,5.5c0,0.016,0,0.031,0,0.047C34.602,67.192,35.29,67,36,67 c1.831,0,3.411,1.261,3.858,3.005C39.905,70.002,39.952,70,40,70c2.757,0,5,2.243,5,5c0,2.757-2.243,5-5,5H25.125 c-0.276,0-0.5-0.224-0.5-0.5c0-0.276,0.224-0.5,0.5-0.5H40c2.206,0,4-1.794,4-4c0-2.206-1.794-4-4-4 c-0.117,0-0.23,0.017-0.343,0.032l-0.141,0.019c-0.021,0.003-0.041,0.004-0.062,0.004c-0.246,0-0.462-0.185-0.495-0.437 C38.768,69.125,37.496,68,36,68c-0.885,0-1.723,0.401-2.301,1.1c-0.098,0.118-0.241,0.182-0.386,0.182 c-0.078,0-0.156-0.018-0.228-0.056c-0.209-0.107-0.314-0.346-0.254-0.573C32.946,68.218,33,67.852,33,67.5 c0-2.481-2.019-4.5-4.5-4.5c-2.381,0-4.347,1.872-4.474,4.263c-0.011,0.208-0.15,0.387-0.349,0.45 c-0.05,0.016-0.101,0.024-0.152,0.024c-0.15,0-0.296-0.069-0.392-0.192C22.362,66.563,21.221,66,20,66c-2.206,0-4,1.794-4,4 c0,0.117,0.017,0.23,0.032,0.343l0.019,0.141c0.016,0.134-0.022,0.268-0.106,0.373c-0.084,0.105-0.207,0.172-0.34,0.185 C13.549,71.247,12,72.949,12,75c0,2.206,1.794,4,4,4h6.125c0.276,0,0.5,0.224,0.5,0.5c0,0.276-0.224,0.5-0.5,0.5H16 c-2.757,0-5-2.243-5-5c0-2.397,1.689-4.413,4.003-4.877C15.001,70.082,15,70.041,15,70c0-2.757,2.243-5,5-5 c1.176,0,2.293,0.416,3.183,1.164C23.781,63.76,25.945,62,28.5,62L28.5,62z"/><path fill="#472b29" d="M30,69c1.403,0,2.609,0.999,2.913,2.341C33.28,71.119,33.699,71,34.125,71 c1.202,0,2.198,0.897,2.353,2.068C36.681,73.022,36.874,73,37.063,73c1.529,0,2.811,1.2,2.918,2.732 C39.99,75.87,39.886,75.99,39.749,76c-0.006,0-0.012,0-0.018,0c-0.13,0-0.24-0.101-0.249-0.232 c-0.089-1.271-1.151-2.268-2.419-2.268c-0.229,0-0.47,0.042-0.738,0.127c-0.022,0.007-0.045,0.01-0.067,0.01 c-0.055,0-0.11-0.02-0.156-0.054C36.038,73.537,36,73.455,36,73.375c0-1.034-0.841-1.875-1.875-1.875 c-0.447,0-0.885,0.168-1.231,0.473c-0.047,0.041-0.106,0.063-0.165,0.063c-0.032,0-0.063-0.006-0.093-0.019 c-0.088-0.035-0.148-0.117-0.155-0.212C32.377,70.512,31.288,69.5,30,69.5c-0.208,0-0.425,0.034-0.682,0.107 c-0.023,0.007-0.047,0.01-0.07,0.01c-0.109,0-0.207-0.073-0.239-0.182c-0.038-0.133,0.039-0.271,0.172-0.309 C29.483,69.04,29.744,69,30,69L30,69z"/><path fill="#472b29" d="M16.117,70.5c1.326,0,2.508,0.897,2.874,2.182c0.038,0.133-0.039,0.271-0.172,0.309 C18.795,72.997,18.772,73,18.75,73c-0.109,0-0.209-0.072-0.24-0.182C18.205,71.748,17.221,71,16.117,71 c-0.117,0-0.23,0.014-0.342,0.029c-0.012,0.002-0.023,0.003-0.035,0.003c-0.121,0-0.229-0.092-0.246-0.217 c-0.019-0.137,0.077-0.263,0.214-0.281C15.842,70.516,15.978,70.5,16.117,70.5L16.117,70.5z"/><path fill="#fff" d="M87.405,68H77.5c-0.276,0-0.5-0.224-0.5-0.5s0.224-0.5,0.5-0.5h9.905c0.276,0,0.5,0.224,0.5,0.5 S87.682,68,87.405,68z"/><path fill="#fff" d="M90.5,68h-1c-0.276,0-0.5-0.224-0.5-0.5s0.224-0.5,0.5-0.5h1c0.276,0,0.5,0.224,0.5,0.5 S90.777,68,90.5,68z"/><path fill="#fff" d="M95.491,70H86.5c-0.276,0-0.5-0.224-0.5-0.5s0.224-0.5,0.5-0.5h8.991c0.276,0,0.5,0.224,0.5,0.5 S95.767,70,95.491,70z"/><path fill="#fff" d="M84.5,70h-1c-0.276,0-0.5-0.224-0.5-0.5s0.224-0.5,0.5-0.5h1c0.276,0,0.5,0.224,0.5,0.5 S84.777,70,84.5,70z"/><path fill="#fff" d="M81.5,70h-2c-0.276,0-0.5-0.224-0.5-0.5s0.224-0.5,0.5-0.5h2c0.276,0,0.5,0.224,0.5,0.5 S81.777,70,81.5,70z"/><path fill="#fff" d="M87.5,72h-2c-0.276,0-0.5-0.224-0.5-0.5s0.224-0.5,0.5-0.5h2c0.276,0,0.5,0.224,0.5,0.5 S87.776,72,87.5,72z"/><path fill="#fff" d="M90.5,63c-0.177,0-0.823,0-1,0c-0.276,0-0.5,0.224-0.5,0.5c0,0.276,0.224,0.5,0.5,0.5 c0.177,0,0.823,0,1,0c0.276,0,0.5-0.224,0.5-0.5C91,63.224,90.776,63,90.5,63z"/><path fill="#fff" d="M90.5,65c-0.177,0-4.823,0-5,0c-0.276,0-0.5,0.224-0.5,0.5c0,0.276,0.224,0.5,0.5,0.5 c0.177,0,4.823,0,5,0c0.276,0,0.5-0.224,0.5-0.5C91,65.224,90.776,65,90.5,65z"/><path fill="#fff" d="M95.5,67c-0.177,0-2.823,0-3,0c-0.276,0-0.5,0.224-0.5,0.5c0,0.276,0.224,0.5,0.5,0.5 c0.177,0,2.823,0,3,0c0.276,0,0.5-0.224,0.5-0.5C96,67.224,95.776,67,95.5,67z"/><path fill="#fdfcef" d="M80.5,27.5c0,0,1.567,0,3.5,0s3.5-1.567,3.5-3.5c0-1.781-1.335-3.234-3.055-3.455 C84.473,20.366,84.5,20.187,84.5,20c0-1.933-1.567-3.5-3.5-3.5c-1.032,0-1.95,0.455-2.59,1.165 c-0.384-1.808-1.987-3.165-3.91-3.165c-2.209,0-4,1.791-4,4c0,0.191,0.03,0.374,0.056,0.558C70.128,18.714,69.592,18.5,69,18.5 c-1.228,0-2.245,0.887-2.455,2.055C66.366,20.527,66.187,20.5,66,20.5c-1.933,0-3.5,1.567-3.5,3.5s1.567,3.5,3.5,3.5s7.5,0,7.5,0 V28h7V27.5z"/><path fill="#472b29" d="M82.25,23C82.112,23,82,22.888,82,22.75c0-1.223,0.995-2.218,2.218-2.218 c0.034,0.009,0.737-0.001,1.244,0.136c0.133,0.036,0.212,0.173,0.176,0.306c-0.036,0.134-0.173,0.213-0.306,0.176 c-0.444-0.12-1.1-0.12-1.113-0.118c-0.948,0-1.719,0.771-1.719,1.718C82.5,22.888,82.388,23,82.25,23z"/><circle cx="75.5" cy="27.5" r=".5" fill="#472b29"/><path fill="#472b29" d="M84,28h-3.5c-0.276,0-0.5-0.224-0.5-0.5s0.224-0.5,0.5-0.5H84c1.654,0,3-1.346,3-3 c0-1.496-1.125-2.768-2.618-2.959c-0.134-0.018-0.255-0.088-0.336-0.196s-0.115-0.244-0.094-0.377C83.975,20.314,84,20.16,84,20 c0-1.654-1.346-3-3-3c-0.85,0-1.638,0.355-2.219,1c-0.125,0.139-0.321,0.198-0.5,0.148c-0.182-0.049-0.321-0.195-0.36-0.379 C77.58,16.165,76.141,15,74.5,15c-1.93,0-3.5,1.57-3.5,3.5c0,0.143,0.021,0.28,0.041,0.418c0.029,0.203-0.063,0.438-0.242,0.54 c-0.179,0.102-0.396,0.118-0.556-0.01C69.878,19.155,69.449,19,69,19c-0.966,0-1.792,0.691-1.963,1.644 c-0.048,0.267-0.296,0.446-0.569,0.405C66.314,21.025,66.16,21,66,21c-1.654,0-3,1.346-3,3s1.346,3,3,3h7.5 c0.276,0,0.5,0.224,0.5,0.5S73.776,28,73.5,28H66c-2.206,0-4-1.794-4-4s1.794-4,4-4c0.059,0,0.116,0.002,0.174,0.006 C66.588,18.82,67.711,18,69,18c0.349,0,0.689,0.061,1.011,0.18C70.176,15.847,72.126,14,74.5,14c1.831,0,3.466,1.127,4.153,2.774 C79.333,16.276,80.155,16,81,16c2.206,0,4,1.794,4,4c0,0.048-0.001,0.095-0.004,0.142C86.739,20.59,88,22.169,88,24 C88,26.206,86.206,28,84,28z"/><path fill="#472b29" d="M78.5,27c-0.159,0-0.841,0-1,0c-0.276,0-0.5,0.224-0.5,0.5c0,0.276,0.224,0.5,0.5,0.5 c0.159,0,0.841,0,1,0c0.276,0,0.5-0.224,0.5-0.5C79,27.224,78.776,27,78.5,27z"/><path fill="#fff" d="M13.5,56h-10C3.224,56,3,55.776,3,55.5S3.224,55,3.5,55h10c0.276,0,0.5,0.224,0.5,0.5 S13.776,56,13.5,56z"/><path fill="#fff" d="M17.5,56h-2c-0.276,0-0.5-0.224-0.5-0.5s0.224-0.5,0.5-0.5h2c0.276,0,0.5,0.224,0.5,0.5 S17.776,56,17.5,56z"/><path fill="#fff" d="M22.5,58h-10c-0.276,0-0.5-0.224-0.5-0.5s0.224-0.5,0.5-0.5h10c0.276,0,0.5,0.224,0.5,0.5 S22.777,58,22.5,58z"/><path fill="#fff" d="M10.5,58h-1C9.224,58,9,57.776,9,57.5S9.224,57,9.5,57h1c0.276,0,0.5,0.224,0.5,0.5 S10.776,58,10.5,58z"/><path fill="#fff" d="M7.47,58H5.5C5.224,58,5,57.776,5,57.5S5.224,57,5.5,57h1.97c0.276,0,0.5,0.224,0.5,0.5 S7.746,58,7.47,58z"/><path fill="#fff" d="M16.5,54h-5c-0.276,0-0.5-0.224-0.5-0.5s0.224-0.5,0.5-0.5h5c0.276,0,0.5,0.224,0.5,0.5 S16.777,54,16.5,54z"/><path fill="#fff" d="M13.5,60h-2c-0.276,0-0.5-0.224-0.5-0.5s0.224-0.5,0.5-0.5h2c0.276,0,0.5,0.224,0.5,0.5 S13.776,60,13.5,60z"/><g><path fill="#f6cca4" d="M58.152,78.417c-0.364,0-0.705-0.141-0.96-0.396L27.127,47.955 c-0.624-0.623-0.967-1.452-0.967-2.333s0.343-1.71,0.967-2.333c0.612-0.613,1.438-0.95,2.323-0.95 c0.077,0,0.263,0.009,0.278,0.009c0.273,0,0.523-0.16,0.638-0.411c0.12-0.266,0.063-0.578-0.143-0.784l-1.683-1.682 c-0.624-0.623-0.967-1.452-0.967-2.333s0.343-1.71,0.967-2.333c0.611-0.612,1.435-0.949,2.319-0.949 c0.107,0,0.215,0.005,0.322,0.015c0.022,0.002,0.044,0.003,0.065,0.003c0.248,0,0.479-0.132,0.605-0.349 c0.137-0.236,0.124-0.531-0.033-0.754c-0.912-1.296-0.89-2.987,0.055-4.111c0.633-0.754,1.558-1.186,2.535-1.186 c0.787,0,1.548,0.281,2.143,0.791c0.163,0.139,0.369,0.216,0.58,0.216c0.414,0,0.763-0.283,0.849-0.687 c0.168-0.788,0.396-1.448,0.606-1.765c0.637-0.956,1.647-1.504,2.772-1.504c0.882,0,1.71,0.343,2.333,0.967l16.834,16.833 c0.132,0.131,0.338,0.217,0.523,0.217c0.379,0,0.73-0.341,0.741-0.72l0.191-6.227c-0.034-0.822,0.218-1.493,0.75-2.049 c0.668-0.699,1.729-1.133,2.769-1.133c0.563,0,1.905,0.141,2.223,1.449c0.67,4.331,1.593,11.086,2.204,15.555 c0.242,1.776,0.44,3.224,0.562,4.077c0.023,0.159,0.111,0.327,0.229,0.436l5.426,5.427c0.272,0.272,0.423,0.556,0.437,0.822 c0.012,0.245-0.095,0.482-0.318,0.705L59.14,78.006C58.875,78.271,58.524,78.417,58.152,78.417L58.152,78.417z"/><path fill="#472b29" d="M41.36,25.224L41.36,25.224c0.695,0,1.348,0.271,1.839,0.761l9.641,9.641l3.282,3.283l3.909,3.909 c0.263,0.263,0.648,0.423,1.02,0.423c0.789,0,1.422-0.617,1.44-1.396l0.192-6.229c0.001-0.036,0.001-0.071-0.001-0.106 c-0.026-0.57,0.162-1.069,0.556-1.481c0.532-0.557,1.421-0.917,2.263-0.917c0.483,0,1.316,0.114,1.53,0.868 c0.68,4.389,1.597,11.099,2.205,15.547c0.242,1.771,0.439,3.214,0.56,4.061c0.042,0.302,0.193,0.604,0.408,0.819l5.445,5.445 c0.177,0.177,0.229,0.311,0.232,0.361c0.002,0.035-0.044,0.106-0.114,0.176L58.645,77.511c-0.179,0.179-0.386,0.206-0.493,0.206 c-0.102,0-0.299-0.024-0.465-0.191L44.81,64.649l-3.05-3.05L27.621,47.46c-0.491-0.491-0.762-1.144-0.761-1.838 c0-0.695,0.27-1.348,0.761-1.838c0.481-0.481,1.13-0.746,1.829-0.746c0.061,0,0.123,0.002,0.184,0.006 c0.031,0.002,0.063,0.003,0.094,0.003c0.546,0,1.046-0.319,1.274-0.821c0.241-0.531,0.128-1.156-0.285-1.568l-1.683-1.683 c-0.491-0.491-0.761-1.144-0.761-1.838c0-0.695,0.27-1.348,0.761-1.838c0.48-0.48,1.128-0.744,1.825-0.744 c0.086,0,0.172,0.004,0.257,0.012c0.044,0.004,0.087,0.006,0.131,0.006c0.496,0,0.959-0.263,1.211-0.698 c0.274-0.473,0.248-1.061-0.066-1.508c-0.729-1.037-0.722-2.376,0.018-3.258c0.5-0.595,1.229-0.936,1.999-0.936 c0.62,0,1.22,0.221,1.687,0.621c0.289,0.249,0.657,0.386,1.037,0.386c0.746,0,1.377-0.51,1.533-1.24 c0.167-0.78,0.374-1.327,0.505-1.524C39.675,25.658,40.473,25.224,41.36,25.224 M41.36,23.824c-1.274,0-2.548,0.605-3.355,1.815 c-0.363,0.544-0.604,1.519-0.709,2.008c-0.018,0.085-0.088,0.132-0.164,0.132c-0.043,0-0.087-0.015-0.124-0.047 c-0.747-0.64-1.673-0.959-2.599-0.959c-1.133,0-2.267,0.479-3.071,1.436c-1.195,1.422-1.139,3.475-0.091,4.964 c-0.129-0.012-0.258-0.018-0.387-0.018c-1.019,0-2.037,0.376-2.815,1.154c-1.562,1.562-1.562,4.095,0,5.657l1.683,1.683 c-0.092-0.006-0.185-0.009-0.278-0.009c-1.021,0-2.04,0.376-2.819,1.155c-1.562,1.562-1.562,4.095,0,5.657L40.77,62.589l3.05,3.05 l12.877,12.876c0.401,0.401,0.927,0.602,1.455,0.602c0.535,0,1.072-0.206,1.483-0.616l17.123-17.123 c0.744-0.744,0.687-1.712-0.118-2.517l-5.445-5.445c-0.006-0.006-0.01-0.013-0.012-0.022c-0.432-3.032-1.83-13.585-2.778-19.698 c-0.33-1.361-1.558-1.984-2.903-1.984c-2.03,0-4.327,1.418-4.218,3.86l-0.192,6.229c-0.001,0.024-0.02,0.04-0.041,0.04 c-0.01,0-0.02-0.004-0.029-0.012l-3.911-3.91l-3.282-3.282l-9.641-9.641C43.408,24.215,42.384,23.824,41.36,23.824L41.36,23.824z"/></g><g><path fill="#fff" fill-rule="evenodd" d="M57.331,77.358l-5.304-5.304l17.901-17.901l5.304,5.304 c0.382,0.382,0.382,1.002,0,1.384L58.715,77.358C58.333,77.74,57.713,77.74,57.331,77.358z" clip-rule="evenodd"/></g><g><path fill="#472b29" d="M59.158,60.971c-0.183,0-0.359-0.101-0.447-0.276c-3.548-7.096-2.564-13.476,2.922-18.962 c0.195-0.195,0.512-0.195,0.707,0c0.195,0.195,0.195,0.512,0,0.707c-5.221,5.221-6.115,11.046-2.734,17.808 c0.123,0.247,0.023,0.547-0.224,0.671C59.31,60.954,59.233,60.971,59.158,60.971z"/></g><g><path fill="#472b29" d="M42.895,34.808c-0.128,0-0.256-0.049-0.354-0.146l-5.656-5.657c-0.195-0.195-0.195-0.512,0-0.707 c0.195-0.195,0.512-0.195,0.707,0l5.656,5.657c0.195,0.195,0.195,0.512,0,0.707C43.15,34.759,43.022,34.808,42.895,34.808z"/></g><g><path fill="#472b29" d="M57.744,66.628c-0.128,0-0.256-0.049-0.354-0.146c-0.195-0.195-0.195-0.512,0-0.707l12.021-12.021 c0.195-0.195,0.512-0.195,0.707,0c0.195,0.195,0.195,0.512,0,0.707L58.098,66.482C58,66.579,57.872,66.628,57.744,66.628z"/></g><g><path fill="#472b29" d="M54.916,69.456c-0.128,0-0.256-0.049-0.354-0.146c-0.195-0.195-0.195-0.512,0-0.707l1.414-1.414 c0.195-0.195,0.512-0.195,0.707,0c0.195,0.195,0.195,0.512,0,0.707L55.27,69.31C55.172,69.408,55.044,69.456,54.916,69.456z"/></g><g><path fill="#472b29" d="M52.087,72.285c-0.128,0-0.256-0.049-0.354-0.146c-0.195-0.195-0.195-0.512,0-0.707l1.414-1.414 c0.195-0.195,0.512-0.195,0.707,0c0.195,0.195,0.195,0.512,0,0.707l-1.414,1.414C52.343,72.236,52.215,72.285,52.087,72.285z"/></g><g><path fill="#472b29" d="M47.845,39.758c-0.128,0-0.256-0.049-0.354-0.146l-2.828-2.828c-0.195-0.195-0.195-0.512,0-0.707 c0.195-0.195,0.512-0.195,0.707,0l2.828,2.828c0.195,0.195,0.195,0.512,0,0.707C48.101,39.709,47.973,39.758,47.845,39.758z"/></g><g><path fill="#472b29" d="M37.945,39.758c-0.128,0-0.256-0.049-0.354-0.146l-5.657-5.657c-0.195-0.195-0.195-0.512,0-0.707 c0.195-0.195,0.512-0.195,0.707,0l5.657,5.657c0.195,0.195,0.195,0.512,0,0.707C38.201,39.709,38.073,39.758,37.945,39.758z"/></g><g><path fill="#472b29" d="M42.895,44.708c-0.128,0-0.256-0.049-0.354-0.146l-2.828-2.828c-0.195-0.195-0.195-0.512,0-0.707 c0.195-0.195,0.512-0.195,0.707,0l2.828,2.828c0.195,0.195,0.195,0.512,0,0.707C43.15,44.659,43.022,44.708,42.895,44.708z"/></g><g><path fill="#472b29" d="M37.945,49.657c-0.128,0-0.256-0.049-0.354-0.146l-7.071-7.071c-0.195-0.195-0.195-0.512,0-0.707 c0.195-0.195,0.512-0.195,0.707,0l7.071,7.071c0.195,0.195,0.195,0.512,0,0.707C38.201,49.609,38.073,49.657,37.945,49.657z"/></g><g><path fill="#472b29" d="M37.238,54.607c-0.128,0-0.256-0.049-0.354-0.146c-0.195-0.195-0.195-0.512,0-0.707L52.44,38.197 c0.195-0.195,0.512-0.195,0.707,0c0.195,0.195,0.195,0.512,0,0.707L37.592,54.461C37.494,54.558,37.366,54.607,37.238,54.607z"/></g><g><path fill="#472b29" d="M59.158,73.491c-0.512,0-1.024-0.195-1.414-0.585c-0.378-0.378-0.586-0.88-0.586-1.414 s0.208-1.036,0.586-1.414l0,0c0.779-0.779,2.049-0.779,2.828,0c0.378,0.378,0.586,0.88,0.586,1.414s-0.208,1.036-0.586,1.414 C60.183,73.296,59.67,73.491,59.158,73.491z M58.451,70.785c-0.188,0.189-0.293,0.44-0.293,0.707s0.104,0.518,0.293,0.707 c0.391,0.39,1.023,0.39,1.414,0c0.188-0.189,0.293-0.44,0.293-0.707s-0.104-0.518-0.293-0.707 C59.475,70.395,58.842,70.395,58.451,70.785L58.451,70.785z"/></g><g><path fill="#472b29" d="M60.158,30.98c-0.242,0-0.456-0.177-0.493-0.425c-0.645-4.227-5.607-9.191-9.835-9.835 c-0.273-0.042-0.461-0.297-0.419-0.57c0.041-0.273,0.301-0.459,0.569-0.419c4.675,0.713,9.961,5.999,10.673,10.673 c0.042,0.273-0.146,0.528-0.419,0.57C60.209,30.979,60.184,30.98,60.158,30.98z"/></g><g><path fill="#472b29" d="M56.964,32.639c-0.228,0-0.433-0.155-0.486-0.386c-0.787-3.347-4.998-7.558-8.345-8.344 c-0.269-0.063-0.436-0.332-0.372-0.601c0.063-0.268,0.33-0.436,0.601-0.373c3.715,0.872,8.217,5.374,9.089,9.089 c0.063,0.269-0.104,0.538-0.372,0.601C57.04,32.635,57.001,32.639,56.964,32.639z"/></g><g><path fill="#472b29" d="M30.432,57.171c-0.018,0-0.035-0.001-0.053-0.003c-4.187-0.437-8.725-4.975-9.161-9.162 c-0.029-0.275,0.171-0.521,0.445-0.549c0.271-0.028,0.521,0.17,0.549,0.445c0.388,3.709,4.562,7.883,8.271,8.271 c0.274,0.029,0.475,0.275,0.445,0.549C30.901,56.979,30.684,57.171,30.432,57.171z"/></g></svg>